<?xml version="1.0" standalone="no"?><!DOCTYPE svg PUBLIC "-//W3C//DTD SVG 1.1//EN" "http://www.w3.org/Graphics/SVG/1.1/DTD/svg11.dtd"><svg t="1778048458192" class="icon" viewBox="0 0 1024 1024" version="1.1" xmlns="http://www.w3.org/2000/svg" p-id="4991" xmlns:xlink="http://www.w3.org/1999/xlink" width="200" height="200"><path d="M906.19975 488.4L511.99975 852.4 117.79975 490.2c-6.24-7.4-14.02-12-21.8-12-8.624 0-17.218 3.438-23.5 10.312-12 13-11.188 33.18 1.78 45.18l416 384a31.912 31.912 0 0 0 43.44 0l416-384c12.97-12 13.784-32.18 1.782-45.18C939.59975 477.2 919.19975 476.4 906.19975 488.4z m-416 47.2a31.912 31.912 0 0 0 43.44 0l416-384c12.968-12 13.782-32.18 1.78-45.18-11.936-13.062-32.22-13.812-45.22-1.812L511.99975 468.4 117.71975 104.52A31.84 31.84 0 0 0 95.99975 96.02c-8.624 0-17.218 3.438-23.5 10.312-12 13-11.188 33.18 1.78 45.18L490.19975 535.6z" p-id="4992" fill="#856800"></path></svg>