<svg width="95" height="23" viewBox="0 0 95 23" fill="none" xmlns="http://www.w3.org/2000/svg">
<path d="M0.000921905 22.6065L2.01692 8.35047H0.168922L3.38492 0.454467C3.44892 0.326468 3.53692 0.222468 3.64892 0.142468C3.76092 0.0624676 3.88892 0.0224671 4.03292 0.0224671H8.37692L5.54492 7.12647H6.98492L4.84892 22.2225C4.83292 22.3345 4.77692 22.4225 4.68092 22.4865C4.60092 22.5665 4.50492 22.6065 4.39292 22.6065H0.000921905ZM15.2649 9.76647L9.62492 10.4145C9.32092 10.4465 9.03292 10.4225 8.76092 10.3425C8.52092 10.2625 8.31292 10.1345 8.13692 9.95847C7.96092 9.78247 7.84092 9.58247 7.77692 9.35847C7.71292 9.11847 7.73692 8.85447 7.84892 8.56647L9.67292 2.06247H8.61692L8.76092 0.886467C8.82492 0.678467 8.92892 0.510468 9.07292 0.382468C9.23292 0.238468 9.40892 0.166468 9.60092 0.166468H21.3369L21.1689 1.41447C21.1369 1.60647 21.0489 1.76647 20.9049 1.89447C20.7769 2.00647 20.6169 2.06247 20.4249 2.06247H14.5449L13.0089 7.58247C12.9769 7.71047 13.0089 7.82247 13.1049 7.91847C13.1689 8.04647 13.2809 8.08647 13.4409 8.03847L15.3609 7.77447L15.7929 2.99847H19.6809C19.8889 2.99847 20.0569 3.07047 20.1849 3.21447C20.3289 3.34247 20.3929 3.51047 20.3769 3.71847L19.8729 10.5585H16.0089C15.7849 10.5585 15.6009 10.4865 15.4569 10.3425C15.3129 10.1825 15.2489 9.99047 15.2649 9.76647ZM7.03292 20.1585L9.84092 20.0385L10.4169 16.0305H6.76892L6.93692 14.8305C6.96892 14.5745 7.08892 14.3665 7.29692 14.2065C7.50492 14.0305 7.73692 13.9425 7.99292 13.9425H10.7289L11.0409 11.6145C11.0729 11.4065 11.1689 11.2385 11.3289 11.1105C11.4889 10.9665 11.6649 10.8945 11.8569 10.8945H16.0329L15.6009 13.9425H19.2489L19.0329 15.3585C19.0009 15.5505 18.9129 15.7105 18.7689 15.8385C18.6409 15.9665 18.4729 16.0305 18.2649 16.0305H15.3129L14.7609 19.8705L18.5769 19.7505L18.3129 21.4065C18.2809 21.5825 18.2009 21.7265 18.0729 21.8385C17.9449 21.9665 17.7849 22.0385 17.5929 22.0545L5.71292 22.4625L5.90492 21.1905C5.95292 20.9025 6.08092 20.6625 6.28892 20.4705C6.49692 20.2785 6.74492 20.1745 7.03292 20.1585ZM19.4409 18.7185L21.6489 3.38247C21.7609 2.74247 22.0649 2.20647 22.5609 1.77447C23.0729 1.32647 23.6489 1.10247 24.2889 1.10247H25.0569L22.7769 16.9905C22.6969 17.4865 22.4569 17.9025 22.0569 18.2385C21.6729 18.5585 21.2409 18.7185 20.7609 18.7185H19.4409ZM27.4809 20.0625C27.3849 20.7825 27.0569 21.3905 26.4969 21.8865C25.9369 22.3665 25.2889 22.6065 24.5529 22.6065H19.7529L19.8969 21.6225C19.9449 21.3665 20.0649 21.1505 20.2569 20.9745C20.4649 20.7985 20.6969 20.7105 20.9529 20.7105H22.3929C22.6009 20.7105 22.7849 20.6385 22.9449 20.4945C23.1209 20.3665 23.2249 20.1985 23.2569 19.9905L25.7529 2.30247C25.8489 1.72647 26.1289 1.24647 26.5929 0.862468C27.0569 0.462468 27.5769 0.262468 28.1529 0.262468H30.3129L27.4809 20.0625ZM38.1082 20.0865C38.2042 20.1665 38.3162 20.1905 38.4442 20.1585L39.3802 20.1105C39.6362 20.1105 39.8282 20.1825 39.9562 20.3265C40.1002 20.4705 40.1642 20.6545 40.1482 20.8785L39.9082 22.3665L34.7242 22.6305C34.0842 22.6625 33.5802 22.5025 33.2122 22.1505C32.8282 21.7825 32.6842 21.3185 32.7802 20.7585L34.7242 7.99047H33.4042C33.0842 7.99047 32.8282 7.88647 32.6362 7.67847C32.4442 7.47047 32.3722 7.21447 32.4202 6.91047L32.6602 5.25447H40.2202L38.0122 19.8225C37.9962 19.9345 38.0282 20.0225 38.1082 20.0865ZM38.6842 -0.00153255C39.1962 -0.00153255 39.6202 0.150467 39.9562 0.454467C40.2922 0.758467 40.4602 1.14247 40.4602 1.60647V4.10247H35.7802V-0.00153255H38.6842ZM48.9322 10.1265H41.3962L41.6362 8.51847C41.6842 8.23047 41.8202 7.99847 42.0442 7.82247C42.2682 7.63047 42.5322 7.53447 42.8362 7.53447H49.3162L50.3002 1.19847C50.3642 0.846467 50.5322 0.558467 50.8042 0.334467C51.0762 0.110467 51.3962 -0.00153255 51.7642 -0.00153255H56.4922L55.3642 7.53447H62.7082L62.4682 9.09447C62.4202 9.39847 62.2762 9.64647 62.0362 9.83847C61.7802 10.0305 61.4922 10.1265 61.1722 10.1265H54.9562L53.0602 22.6065H47.0362L48.9322 10.1265ZM86.7515 11.4705L86.3915 14.0865L80.9435 11.8545C79.5355 11.1985 78.9035 10.0225 79.0475 8.32647L86.7515 11.4705ZM72.3275 2.44647L72.5675 0.718468H79.0715L76.4315 20.1825C76.3355 20.8065 76.0315 21.3425 75.5195 21.7905C74.9915 22.2065 74.3995 22.4145 73.7435 22.4145H66.8795C66.2235 22.4145 65.7035 22.2065 65.3195 21.7905C64.9355 21.3425 64.7915 20.8065 64.8875 20.1825L67.5275 0.718468H71.9435L71.7035 2.44647L71.6795 2.54247L71.6555 2.78247L71.6315 2.87847L70.7195 9.62247H73.4555L74.4395 2.44647H72.3275ZM72.0155 20.1825L73.1195 11.9985H70.4075L69.2795 20.1825C69.2635 20.3265 69.2715 20.4465 69.3035 20.5425C69.3515 20.6385 69.4475 20.6865 69.5915 20.6865H71.5835C71.7275 20.6865 71.8315 20.6385 71.8955 20.5425C71.9595 20.4465 71.9995 20.3265 72.0155 20.1825ZM93.4955 1.29447H94.9595L94.6715 3.47847C94.6396 3.60647 94.5676 3.72647 94.4556 3.83847C94.3596 3.93447 94.2395 3.98247 94.0955 3.98247H93.1355L90.9516 19.9185C90.8716 20.6545 90.5515 21.2865 89.9915 21.8145C89.4475 22.3585 88.8236 22.6305 88.1195 22.6305H81.1355L81.2075 22.1505C81.2875 21.6225 81.5195 21.1825 81.9035 20.8305C82.3035 20.4785 82.7515 20.3025 83.2475 20.3025H85.3595C85.5995 20.3025 85.8235 20.2065 86.0315 20.0145C86.2395 19.8385 86.3675 19.6305 86.4155 19.3905L88.5036 3.98247H79.6715L79.9115 2.37447C79.9595 2.07047 80.0955 1.81447 80.3195 1.60647C80.5435 1.39847 80.7995 1.29447 81.0875 1.29447H88.8636L88.9115 0.982468C88.9595 0.710467 89.0795 0.494467 89.2715 0.334467C89.4635 0.158468 89.6795 0.0704679 89.9196 0.0704679H93.6635L93.4955 1.29447Z" fill="#856800"/>
</svg>
