<?xml version="1.0" standalone="no"?><!DOCTYPE svg PUBLIC "-//W3C//DTD SVG 1.1//EN" "http://www.w3.org/Graphics/SVG/1.1/DTD/svg11.dtd"><svg t="1779348306681" class="icon" viewBox="0 0 1024 1024" version="1.1" xmlns="http://www.w3.org/2000/svg" p-id="9961" xmlns:xlink="http://www.w3.org/1999/xlink" width="200" height="200"><path d="M830.848 927.552H193.152c-53.312 0-96.64-43.392-96.64-96.64V482.88h139.264c22.72 0 45.12 9.28 61.248 25.344l157.504 157.568a149.888 149.888 0 0 0 106.816 44.288h155.328c23.168 0 44.928 8.96 61.248 25.344l138.88 138.88c-16 31.36-48.256 53.184-85.824 53.184z m96.64-133.44l-104.064-104.128a149.952 149.952 0 0 0-106.88-44.288H561.28c-23.168 0-44.928-8.96-61.248-25.344L342.4 462.72a152.128 152.128 0 0 0-106.752-44.288H96.384V193.088c0-53.312 43.392-96.64 96.64-96.64H549.12V32H193.088A161.28 161.28 0 0 0 32 193.088v637.76A161.28 161.28 0 0 0 193.088 992h637.76A161.28 161.28 0 0 0 992 830.848V474.88h-64.512v319.296z" p-id="9962" fill="#2c2c2c"></path><path d="M825.088 347.392l3.904 10.624 3.904-10.624a251.2 251.2 0 0 1 148.48-148.48L992 195.008l-10.624-3.968a251.328 251.328 0 0 1-148.48-148.48L829.056 32l-3.968 10.56a251.328 251.328 0 0 1-148.48 148.48l-10.624 3.968 10.624 3.904a251.2 251.2 0 0 1 148.48 148.48" p-id="9963" fill="#2c2c2c"></path></svg>