<?xml version="1.0" standalone="no"?><!DOCTYPE svg PUBLIC "-//W3C//DTD SVG 1.1//EN" "http://www.w3.org/Graphics/SVG/1.1/DTD/svg11.dtd"><svg t="1780891907875" class="icon" viewBox="0 0 1024 1024" version="1.1" xmlns="http://www.w3.org/2000/svg" p-id="16998" xmlns:xlink="http://www.w3.org/1999/xlink" width="200" height="200"><path d="M675 135c-116.897 0-212 95.103-212 212 0 46.416 15.006 89.387 40.404 124.341L188.373 786.373c-12.497 12.496-12.497 32.758 0 45.254C194.621 837.876 202.811 841 211 841s16.379-3.124 22.627-9.373l89.631-89.631 107.707 107.706c6.249 6.248 14.438 9.372 22.627 9.372s16.379-3.124 22.627-9.373c12.497-12.496 12.497-32.758 0-45.255L368.514 696.74 410.255 655l74.708 74.708c6.249 6.249 14.438 9.373 22.627 9.373s16.379-3.124 22.627-9.373c12.497-12.496 12.497-32.758 0-45.254l-74.708-74.709 92.837-92.837C583.708 543.335 627.559 559 675 559c116.897 0 212-95.103 212-212s-95.103-212-212-212z m0 360c-39.781 0-75.942-15.781-102.564-41.406a32.26 32.26 0 0 0-2.81-3.222 32.28 32.28 0 0 0-2.809-2.49C542.132 421.428 527 385.951 527 347c0-81.607 66.393-148 148-148s148 66.393 148 148-66.393 148-148 148z" fill="#707070" p-id="16999"></path></svg>