<svg width="51" height="51" viewBox="0 0 51 51" fill="none" xmlns="http://www.w3.org/2000/svg">
<path fill-rule="evenodd" clip-rule="evenodd" d="M39.1096 12.9495L34.1437 11.6189L29.1778 10.2883L24.2119 8.95771L19.246 7.62711L20.5766 2.66121L25.5425 3.99182L30.5084 5.32243L35.4743 6.65303L40.4402 7.98364L39.1096 12.9495ZM37.779 17.9154L39.1096 12.9495L44.0755 14.2801L42.7449 19.246L37.779 17.9154ZM37.4225 39.1096L38.7531 34.1437L40.0837 29.1778L41.4143 24.2119L42.7449 19.246L47.7108 20.5766L46.3802 25.5425L45.0496 30.5084L43.719 35.4743L42.3884 40.4402L37.4225 39.1096ZM31.126 42.7449L32.4566 37.779L37.4225 39.1096L36.0919 44.0755L31.126 42.7449ZM9.93178 42.3884L11.2624 37.4225L16.2283 38.7531L21.1942 40.0837L26.1601 41.4143L31.126 42.7449L29.7954 47.7108L24.8295 46.3802L19.8636 45.0496L14.8977 43.719L9.93178 42.3884ZM6.2965 36.0919L7.62711 31.126L12.593 32.4566L11.2624 37.4225L6.2965 36.0919ZM6.65303 14.8977L7.98364 9.93178L12.9495 11.2624L11.6189 16.2283L10.2883 21.1942L8.95771 26.1601L7.62711 31.126L2.66121 29.7954L3.99182 24.8295L5.32243 19.8636L6.65303 14.8977ZM12.9495 11.2624L14.2801 6.2965L19.246 7.62711L17.9154 12.593L12.9495 11.2624Z" fill="#FFEFB0"/>
<path d="M14.307 6.3125L44.0845 14.2914L36.1122 44.0445L6.33463 36.0656L14.307 6.3125Z" fill="#FFEFB0"/>
</svg>
