<svg width="119" height="28" viewBox="0 0 119 28" fill="none" xmlns="http://www.w3.org/2000/svg">
<path d="M67.1 1.79922H69.08V20.2792H67.1V16.0792H63.46V14.1992H67.1V11.2992H64.58V9.41922H67.1V6.65922H64.18V4.77922H67.1V1.79922ZM60.08 20.0992H58.26L57.8 18.0792C58.36 18.1592 58.88 18.1992 59.36 18.1992C59.88 18.1992 60.14 17.9992 60.14 17.6392V13.5592C59.54 13.7792 58.92 13.9992 58.32 14.1992L57.8 12.0792C58.58 11.9192 59.36 11.6992 60.14 11.4392V7.39922H58.22V5.37922H60.14V1.83922H62.18V5.37922H63.74V7.39922H62.18V10.6392C62.72 10.3992 63.26 10.1192 63.8 9.83922V11.9792C63.26 12.2392 62.72 12.4992 62.18 12.7392V18.1592C62.18 19.4392 61.48 20.0992 60.08 20.0992ZM70.86 1.79922H72.86V4.77922H76.06V6.65922H72.86V9.41922H75.56V11.2992H72.86V14.1992H76.2V16.0792H72.86V20.2792H70.86V1.79922ZM86.36 2.81922H96.2V4.87922H86.36V2.81922ZM85.88 7.77922H97.06V9.83922H93.98V18.2192C93.98 19.5392 93.24 20.1992 91.76 20.1992H88.86L88.4 18.1592C89.32 18.2392 90.2 18.2992 91.04 18.2992C91.58 18.2992 91.86 18.0992 91.86 17.6992V9.83922H85.88V7.77922ZM82.88 1.87922L84.78 2.77922C83.72 4.95922 81.9 6.93922 79.32 8.71922L78.68 6.61922C80.56 5.27922 81.96 3.69922 82.88 1.87922ZM83.82 6.47922L85.7 7.35922C85.18 8.39922 84.52 9.39922 83.72 10.3592V20.2792H81.66V12.4192C80.98 12.9792 80.24 13.5392 79.48 14.0792L78.84 12.0192C81.08 10.4592 82.74 8.59922 83.82 6.47922ZM99.94 5.21922H102.28V1.77922H104.32V5.21922H106.2V7.21922H104.32V8.43922C105.06 9.25922 105.8 10.1592 106.52 11.1392L105.34 12.9192C104.94 12.1192 104.6 11.4192 104.32 10.8592V20.2192H102.28V11.4792C101.8 12.9392 101.2 14.2992 100.52 15.5592L99.6 13.2592C100.8 11.4992 101.68 9.47922 102.24 7.21922H99.94V5.21922ZM106.9 3.29922H111.18C111 2.85922 110.8 2.43922 110.6 2.03922L112.68 1.67922C112.88 2.15922 113.06 2.69922 113.26 3.29922H117.62V5.13922H115.78C115.62 5.77922 115.44 6.37922 115.24 6.95922H117.88V10.3192H115.9V8.75922H108.58V10.3192H106.6V6.95922H109.4C109.24 6.29922 109.06 5.69922 108.86 5.13922H106.9V3.29922ZM113.28 6.95922C113.5 6.35922 113.68 5.75922 113.8 5.13922H110.9C111.06 5.69922 111.2 6.31922 111.36 6.95922H113.28ZM106.66 10.9992H111.32C111.12 10.4392 110.92 9.93922 110.72 9.45922L112.78 9.09922C112.98 9.65922 113.18 10.2992 113.38 10.9992H118.04V12.8792H111.52C111.48 13.3392 111.44 13.7792 111.36 14.2192H116.9C116.88 17.2992 116.54 19.0792 115.88 19.5992C115.62 19.7992 115.22 19.9392 114.7 20.0592C114.2 20.1392 113.72 20.1792 113.24 20.1992H112.24L111.7 18.3392C112.38 18.3392 113 18.3592 113.58 18.3592C114.02 18.3392 114.32 18.2592 114.52 18.0992C114.7 17.9392 114.82 17.2592 114.86 16.0192H110.88C110.14 17.9392 108.82 19.4392 106.9 20.4992L105.8 18.7392C108.1 17.6192 109.34 15.6592 109.54 12.8792H106.66V10.9992Z" fill="black"/>
<path d="M5.68 1.91922C5.68 0.879217 6.52 -0.000782013 7.6 -0.000782013H22.96C24 -0.000782013 24.88 0.879217 24.88 1.91922V9.59922C24.88 10.6792 24 11.5192 22.96 11.5192H11.44C10.36 11.5192 9.52 12.3992 9.52 13.4392V17.2792C9.52 18.3592 8.64 19.1992 7.6 19.1992H3.76C2.68 19.1992 1.84 18.3592 1.84 17.2792V5.75922C1.84 4.71922 2.68 3.83922 3.76 3.83922C4.8 3.83922 5.68 2.99922 5.68 1.91922ZM19.12 7.67922C20.16 7.67922 21.04 6.83922 21.04 5.75922C21.04 4.71922 20.16 3.83922 19.12 3.83922H11.44C10.36 3.83922 9.52 4.71922 9.52 5.75922C9.52 6.83922 10.36 7.67922 11.44 7.67922H19.12ZM47.7588 5.75922C47.7588 6.83922 46.8788 7.67922 45.8388 7.67922C44.7588 7.67922 43.9188 8.55922 43.9188 9.59922C43.9188 10.6792 44.7588 11.5192 45.8388 11.5192H49.6788C50.7188 11.5192 51.5988 12.3992 51.5988 13.4392V17.2792C51.5988 18.3592 50.7188 19.1992 49.6788 19.1992H45.8388C44.7588 19.1992 43.9188 18.3592 43.9188 17.2792C43.9188 16.2392 43.0388 15.3592 41.9988 15.3592C40.9188 15.3592 40.0788 14.5192 40.0788 13.4392C40.0788 12.3992 39.1988 11.5192 38.1588 11.5192C37.0788 11.5192 36.2388 12.3992 36.2388 13.4392V17.2792C36.2388 18.3592 35.3588 19.1992 34.3188 19.1992H30.4788C29.3988 19.1992 28.5588 18.3592 28.5588 17.2792V1.91922C28.5588 0.879217 29.3988 -0.000782013 30.4788 -0.000782013H34.3188C35.3588 -0.000782013 36.2388 0.879217 36.2388 1.91922V5.75922C36.2388 6.83922 37.0788 7.67922 38.1588 7.67922C39.1988 7.67922 40.0788 6.83922 40.0788 5.75922C40.0788 4.71922 40.9188 3.83922 41.9988 3.83922C43.0388 3.83922 43.9188 2.99922 43.9188 1.91922C43.9188 0.879217 44.7588 -0.000782013 45.8388 -0.000782013H49.6788C50.7188 -0.000782013 51.5988 0.879217 51.5988 1.91922C51.5988 2.99922 50.7188 3.83922 49.6788 3.83922C48.5988 3.83922 47.7588 4.71922 47.7588 5.75922Z" fill="url(#paint0_linear_71940_1060)"/>
<defs>
<linearGradient id="paint0_linear_71940_1060" x1="4.80434" y1="-0.557176" x2="51" y2="19.1992" gradientUnits="userSpaceOnUse">
<stop stop-color="#41E4FF"/>
<stop offset="0.364576" stop-color="#FFF28E"/>
<stop offset="1" stop-color="#FEC89E"/>
</linearGradient>
</defs>
</svg>
