<svg width="336" height="28" viewBox="0 0 336 28" fill="none" xmlns="http://www.w3.org/2000/svg">
<g filter="url(#filter0_d_72074_8603)">
<path d="M0 8.00001C0 3.58173 3.58172 0 8 0L289.631 0C292.146 0 294.599 0.790729 296.641 2.26041L329.234 25.7197C331.276 27.1894 333.729 27.9801 336.244 27.9801H407C411.418 27.9801 415 31.5618 415 35.9801V219C415 223.418 411.418 227 407 227H7.99999C3.58172 227 0 223.418 0 219V8.00001Z" fill="#F8F4DF"/>
<path d="M8 0.25H289.631C292.094 0.250064 294.495 1.0241 296.494 2.46289L329.089 25.9229C331.173 27.4229 333.676 28.2304 336.244 28.2305H407C411.28 28.2305 414.75 31.7003 414.75 35.9805V219C414.75 223.28 411.28 226.75 407 226.75H8C3.71979 226.75 0.25 223.28 0.25 219V8C0.250004 3.7198 3.7198 0.25 8 0.25Z" stroke="#E2E2E2" stroke-width="0.5"/>
</g>
<path d="M28.485 10.548L29.655 11.263C29.057 12.329 28.446 13.213 27.835 13.889C27.237 14.565 26.379 15.306 25.235 16.125L24.494 14.916C25.3 14.474 26.08 13.85 26.808 13.031C27.393 12.355 27.952 11.536 28.485 10.548ZM28.836 16.658H26.496V15.345H34.4C34.348 17.035 34.27 18.387 34.14 19.427C34.01 20.467 33.802 21.182 33.49 21.598C33.191 21.988 32.71 22.209 32.047 22.248H29.551L29.187 20.909C29.954 20.935 30.682 20.961 31.358 20.961C31.995 20.961 32.411 20.688 32.619 20.168C32.827 19.622 32.97 18.452 33.022 16.658H30.214C29.915 17.984 29.512 19.037 28.992 19.83C28.316 20.779 27.315 21.637 25.989 22.391L25.105 21.26C26.275 20.636 27.159 19.947 27.757 19.193C28.212 18.543 28.576 17.698 28.836 16.658ZM32.554 10.392C33.256 12.329 34.569 13.863 36.493 14.981L35.57 16.06C33.568 14.773 32.164 13.109 31.371 11.055L32.554 10.392ZM44.969 15.02V16.216H43.591V14.097C42.798 15.202 41.394 16.164 39.379 16.983L38.664 15.813C40.393 15.267 41.628 14.682 42.369 14.032H38.742V12.771H43.591V10.301H44.969V12.771H49.818V14.032H44.969V14.123C46.685 14.565 48.271 15.085 49.701 15.709L48.96 16.84C47.66 16.086 46.321 15.488 44.969 15.02ZM44.189 19.232C43.942 19.661 43.656 20.038 43.344 20.376C42.512 21.208 41.069 21.871 39.002 22.365L38.456 21.104C40.198 20.727 41.446 20.207 42.226 19.531C42.434 19.336 42.629 19.128 42.785 18.92H38.638V17.659H43.396C43.5 17.321 43.578 16.97 43.63 16.606H45.008C44.956 16.97 44.891 17.321 44.813 17.659H49.922V18.92H45.476C46.62 19.986 48.18 20.74 50.13 21.182L49.441 22.404C47.153 21.78 45.398 20.714 44.189 19.232ZM41.264 10.496C41.615 11.029 41.927 11.64 42.213 12.342L41.069 12.641C40.809 12.03 40.484 11.445 40.094 10.886L41.264 10.496ZM47.283 10.47L48.466 10.782C48.193 11.484 47.842 12.095 47.413 12.628L46.282 12.225C46.672 11.757 46.997 11.172 47.283 10.47ZM52.145 15.553H63.962V16.905H52.145V15.553Z" fill="#856800"/>
<defs>
<filter id="filter0_d_72074_8603" x="-11.1" y="-8.1" width="437.2" height="249.2" filterUnits="userSpaceOnUse" color-interpolation-filters="sRGB">
<feFlood flood-opacity="0" result="BackgroundImageFix"/>
<feColorMatrix in="SourceAlpha" type="matrix" values="0 0 0 0 0 0 0 0 0 0 0 0 0 0 0 0 0 0 127 0" result="hardAlpha"/>
<feOffset dy="3"/>
<feGaussianBlur stdDeviation="5.55"/>
<feComposite in2="hardAlpha" operator="out"/>
<feColorMatrix type="matrix" values="0 0 0 0 0 0 0 0 0 0 0 0 0 0 0 0 0 0 0.07 0"/>
<feBlend mode="normal" in2="BackgroundImageFix" result="effect1_dropShadow_72074_8603"/>
<feBlend mode="normal" in="SourceGraphic" in2="effect1_dropShadow_72074_8603" result="shape"/>
</filter>
</defs>
</svg>
