<?xml version="1.0" standalone="no"?><!DOCTYPE svg PUBLIC "-//W3C//DTD SVG 1.1//EN" "http://www.w3.org/Graphics/SVG/1.1/DTD/svg11.dtd"><svg t="1779344902859" class="icon" viewBox="0 0 1024 1024" version="1.1" xmlns="http://www.w3.org/2000/svg" p-id="5524" xmlns:xlink="http://www.w3.org/1999/xlink" width="200" height="200"><path d="M168.618667 168.618667c94.776889-94.833778 325.461333-17.92 515.072 171.690666 189.667556 189.667556 266.581333 420.238222 171.747555 515.128889-94.890667 94.833778-325.404444 17.92-515.128889-171.747555C150.641778 494.08 73.784889 263.395556 168.618667 168.618667z m469.845333 216.974222C470.641778 217.770667 275.171556 152.576 213.902222 213.902222c-61.326222 61.269333 3.811556 256.682667 171.690667 424.561778 167.879111 167.822222 363.292444 232.96 424.561778 171.690667 61.326222-61.269333-3.811556-256.682667-171.690667-424.561778z" fill="#2c2c2c" p-id="5525"></path><path d="M340.309333 340.252444c189.667556-189.610667 420.295111-266.467556 515.128889-171.633777 94.833778 94.776889 17.92 325.404444-171.747555 515.072-189.610667 189.667556-420.295111 266.581333-515.072 171.747555-94.833778-94.890667-17.92-325.518222 171.690666-515.185778z m469.902223-126.350222c-61.326222-61.326222-256.739556 3.811556-424.618667 171.690667-167.822222 167.822222-233.016889 363.178667-171.690667 424.561778 61.269333 61.326222 256.682667-3.811556 424.561778-171.690667 167.822222-167.879111 232.96-363.292444 171.690667-424.561778z" fill="#2c2c2c" p-id="5526"></path><path d="M442.595556 512a69.404444 69.404444 0 1 0 138.808888 0 69.404444 69.404444 0 0 0-138.808888 0z" fill="#2c2c2c" p-id="5527"></path></svg>