<?xml version="1.0" standalone="no"?><!DOCTYPE svg PUBLIC "-//W3C//DTD SVG 1.1//EN" "http://www.w3.org/Graphics/SVG/1.1/DTD/svg11.dtd"><svg t="1779421660451" class="icon" viewBox="0 0 1024 1024" version="1.1" xmlns="http://www.w3.org/2000/svg" p-id="34340" xmlns:xlink="http://www.w3.org/1999/xlink" width="200" height="200"><path d="M140.458667 629.418667c-40.618667 105.585778-34.133333 189.781333 15.189333 239.047111 27.079111 27.192889 66.104889 41.756444 113.265778 41.756444 69.12 0 153.656889-30.890667 240.526222-85.219555L512 823.352889l2.56 1.536c86.869333 54.385778 171.463111 85.276444 240.64 85.276444 47.104 0 86.072889-14.563556 113.208889-41.756444 49.265778-49.265778 55.751111-133.518222 15.132444-239.047111a676.465778 676.465778 0 0 0-58.424889-114.801778L823.409778 512l1.649778-2.673778c23.096889-36.238222 42.666667-74.752 58.538666-114.744889 40.561778-105.528889 34.076444-189.838222-15.132444-239.104C841.386667 128.341333 802.304 113.777778 755.143111 113.777778c-69.12 0-153.656889 30.890667-240.583111 85.276444l-2.503111 1.649778-2.616889-1.706667c-86.869333-54.328889-171.406222-85.162667-240.583111-85.162666-47.047111 0-86.129778 14.563556-113.265778 41.699555-49.322667 49.322667-55.808 133.518222-15.246222 239.104 14.449778 37.319111 34.247111 76.003556 58.595555 114.744889L200.476444 512l-1.649777 2.673778c-22.983111 36.238222-42.666667 74.752-58.424889 114.744889zM512 737.052444l-2.844444-2.048a954.026667 954.026667 0 0 1-119.296-100.864c-36.977778-36.977778-70.940444-76.8-101.603556-119.182222L286.264889 512l2.048-2.787556A964.892444 964.892444 0 0 1 509.212444 288.995556L512 287.061333l2.730667 1.934223a957.610667 957.610667 0 0 1 220.899555 220.216888l2.048 2.787556-2.048 2.844444a964.721778 964.721778 0 0 1-220.899555 220.16l-2.730667 2.048zM423.537778 512a88.405333 88.405333 0 0 0 122.311111 81.692444 88.405333 88.405333 0 0 0-45.397333-169.358222 88.462222 88.462222 0 0 0-76.913778 87.665778z" p-id="34341" fill="#2C2C2C"></path></svg>