<?xml version="1.0" standalone="no"?><!DOCTYPE svg PUBLIC "-//W3C//DTD SVG 1.1//EN" "http://www.w3.org/Graphics/SVG/1.1/DTD/svg11.dtd"><svg t="1779772634408" class="icon" viewBox="0 0 1024 1024" version="1.1" xmlns="http://www.w3.org/2000/svg" p-id="4592" xmlns:xlink="http://www.w3.org/1999/xlink" width="200" height="200"><path d="M395.52 652.373333l340.394667-251.605333c16.682667-12.373333 40.533333-7.552 48.512 11.605333 41.813333 101.077333 23.125333 222.506667-60.16 305.877334-83.242667 83.370667-199.125333 101.632-305.024 59.989333l-115.669334 53.632c165.930667 113.536 367.402667 85.461333 493.312-40.661333 99.882667-100.010667 130.816-236.330667 101.888-359.253334l0.256 0.298667c-41.941333-180.565333 10.325333-252.757333 117.333334-400.341333 2.56-3.498667 5.12-6.997333 7.637333-10.581334l-140.842667 141.013334v-0.426667L395.52 652.373333z m-70.272 61.141334c-119.125333-113.92-98.56-290.176 3.029333-391.850667 75.136-75.221333 198.272-105.941333 305.749334-60.8l115.413333-53.333333a333.141333 333.141333 0 0 0-78.037333-42.666667A382.933333 382.933333 0 0 0 255.317333 248.746667c-108.074667 108.202667-142.08 274.602667-83.712 416.597333 43.605333 106.112-27.861333 181.162667-99.84 256.938667-25.557333 26.88-51.157333 53.717333-71.765333 82.133333l325.248-290.901333z" fill="#000000" p-id="4593"></path></svg>