<?xml version="1.0" standalone="no"?><!DOCTYPE svg PUBLIC "-//W3C//DTD SVG 1.1//EN" "http://www.w3.org/Graphics/SVG/1.1/DTD/svg11.dtd"><svg t="1779772810070" class="icon" viewBox="0 0 1024 1024" version="1.1" xmlns="http://www.w3.org/2000/svg" p-id="6985" xmlns:xlink="http://www.w3.org/1999/xlink" width="200" height="200"><path d="M316.843 333.227h-83.627a16.085 16.085 0 0 0-13.91 8.106L172.8 422.571a16.427 16.427 0 0 0 0 16.256l190.72 333.226h92.715l137.728-116.906-277.12-321.92z" fill="#615CED" p-id="6986"></path><path d="M261.12 593.28l-41.813 73.13a16.384 16.384 0 0 0 0 16.214l46.464 81.28a15.957 15.957 0 0 0 13.909 8.15h176.555L261.077 593.28h0.043z m501.803-162.56l41.813-73.13a16.384 16.384 0 0 0 0-16.257l-46.464-81.28a16.085 16.085 0 0 0-13.952-8.106l-381.099 0.128-46.336 81.066 31.36 178.902 414.72-81.366z" fill="#615CED" p-id="6987"></path><path d="M567.723 251.947l-41.814-73.131a16.043 16.043 0 0 0-13.909-8.15h-92.928a15.957 15.957 0 0 0-13.952 8.107l-42.24 73.942-46.037 80.469 250.88-81.237zM456.235 772.053l41.813 73.174c2.859 4.992 8.15 8.106 13.91 8.106h92.927c5.76 0 11.094-3.114 13.952-8.106l190.379-333.398-46.336-81.066-169.088-62.038-137.557 403.371z" fill="#615CED" p-id="6988"></path><path d="M707.115 690.773h83.626c5.76 0 11.094-3.114 13.952-8.106l46.464-81.28a16.256 16.256 0 0 0 0-16.256l-42.24-73.942-45.994-80.469-55.808 260.053z" fill="#615CED" p-id="6989"></path><path d="M466.603 755.456l-185.387 0.768 45.952-81.195 92.8-0.384L233.003 350.72l92.885-0.17L512.64 674.09l-46.037 81.366z" fill="#FFFFFF" p-id="6990"></path><path d="M325.845 350.55l92.075-162.475 46.635 80.725-46.08 81.323 371.285-1.494-46.293 81.28-370.816 1.579-46.806-80.939z m417.664 79.402l93.312 161.707-92.586 0.426-46.72-80.938-184.32 325.461-46.592-81.152 184.064-325.12 92.842-0.427z" fill="#FFFFFF" p-id="6991"></path><path d="M512.64 674.09L650.71 430.38l-278.06 1.152 139.99 242.602z" fill="#605BEC" p-id="6992"></path><path d="M512.64 674.09L325.888 350.55l9.216-16.214 186.752 323.499-9.216 16.298z" fill="#605BEC" p-id="6993"></path><path d="M372.608 431.53l370.901-1.578 9.302 16.213-370.816 1.536z" fill="#605BEC" p-id="6994"></path><path d="M650.71 430.293l-184.065 325.12-18.56 0.086 184.107-325.12 18.517-0.086z" fill="#605BEC" p-id="6995"></path></svg>